. 
  
http://www.torrenting.com/        :     Greatest Movie Tracker on The Net!!!
 
http://www.Torrenting.com          :     Once & For all ;)


               www . Torrenting . Com 

(((((((((((((= Enjoy No RAR releases =))))))))))))))))))))


...................................NFO:....................................

.                                                                                                     
       
     
     
       
       
     
     
                                         
                                         
                EXVID                    
                                         
         
                                         
         Filled the Archives             
                                         
         
                                         
                With:                    
                                         
         
                                         
                                    
     E240                           
                                    
     SP               (C) 2009      
                                         
     
     
     
                                                                                  
                                                                                   
                 Gooische.Vrouwen.2011.DVDRip.XviD-EXViD                            
                                                                                   
                                                                                  
     
                                                                                               
EXViD aims to iNTERNAL those releases which have been lost in the archives.
EXViD aims to PRE non-internal releases which have poor sources and are likely skipped by others. 
http://www.imdb.com/title/tt1700423/
Subtitles: NL HI, FL, EN
Date: 2011.09

Director: Will Koopman

Genres: Comedy | Drama

Plot:
In het Gooi verlopen de levens van de vier vriendinnen alles behalve soepel. Cheryls man,
Martin, wordt weer behoorlijk afgeleid door ander vrouwelijk schoon. Claires dochter en dus ook
haar kleinzoon vertrekken naar Burkina Faso voor drie jaar. Roelien is van slag omdat ze een
bejaarde heeft geslagen en tot overmaat van ramp besluit Vlinder bij haar vader te gaan wonen,
omdat ze haar moeder een slet vindt. De dames zijn hard toe aan een vakantie om weer een beetje
tot zichzelf te komen. Ze pakken hun koffers en vertrekken naar Frankrijk. Eenmaal daar
realiseren ze zich hoe belangrijk vriendschap eigenlijk is.

Cast:
Linda de Mol 	 ... 	 Cheryl Morero 
Susan Visser 	 ... 	 Anouk Verschuur 
Tjitske Reidinga 	 ... 	 Claire van Kampen 
Lies Visschedijk 	 ... 	 Roelien Grootheeze 
Peter Paul Muller 	 ... 	Martin Morero 
Derek de Lint 	 ... 	Dokter Rossi 
Leopold Witte 	 ... 	Evert Lodewijkx 
Danil Boissevain 	 ... 	Tom Blauw 
Lisa Bouwman 	 ... 	 Vlinder Blaauw 
Tina de Bruin 	 ... 	 Lerares Vlinder 
Iwan Dam 		
Maik de Boer 	 ... 	 Maik de Boer 
Mea de Jong 	 ... 	 Merel van Kampen 
Natasja Froger 	 ... 	 Natasja Froger 
Ren Froger 	 ... 	 Ren Froger

Stats:
Format                           : AVI
Format/Info                      : Audio Video Interleave
File size                        : 1.37 GiB
Duration                         : 1h 43mn
Overall bit rate                 : 1 887 Kbps
Writing application              : Nandub v1.0rc2
Writing library                  : Nandub build 1852/release

Video
ID                               : 0
Format                           : MPEG-4 Visual
Format profile                   : Advanced Simple@L5
Format settings, BVOP            : Yes
Format settings, QPel            : No
Format settings, GMC             : No warppoints
Format settings, Matrix          : Default (H.263)
Muxing mode                      : Packed bitstream
Codec ID                         : XVID
Codec ID/Hint                    : XviD
Duration                         : 1h 43mn
Bit rate                         : 1 429 Kbps
Width                            : 624 pixels
Height                           : 336 pixels
Display aspect ratio             : 1.857
Frame rate                       : 25.000 fps
Color space                      : YUV
Chroma subsampling               : 4:2:0
Bit depth                        : 8 bits
Scan type                        : Progressive
Bits/(Pixel*Frame)               : 0.273
Stream size                      : 1.03 GiB (76%)
Writing library                  : XviD 62

Audio
ID                               : 1
Format                           : AC-3
Format/Info                      : Audio Coding 3
Mode extension                   : CM (complete main)
Codec ID                         : 2000
Duration                         : 1h 43mn
Bit rate mode                    : Constant
Bit rate                         : 448 Kbps
Channel(s)                       : 6 channels
Channel positions                : Front: L C R, Side: L R, LFE
Sampling rate                    : 48.0 KHz
Bit depth                        : 16 bits
Video delay                      : 1s 0ms
Stream size                      : 332 MiB (24%)
Alignment                        : Split accross interleaves
Interleave, duration             : 40 ms (1.00 video frame)
Interleave, preload duration     : 500 ms




Release notes:
enjoy!

Looking for:
75TB+ Archives
DUTCH/FLEMiSH Archives
                                                                                                    
Greets: CRBS EPiSODE FiCO FLS iLS KLASSiGER LiPSYNC MADE NODLABS RUNNER SPRiNTER      
   

                                                                    ASCII DONE BY XX^NFO 2oo9